<mxfile host="app.diagrams.net" agent="Mozilla/5.0 (Windows NT 10.0; Win64; x64) AppleWebKit/537.36 (KHTML, like Gecko) Chrome/133.0.0.0 Safari/537.36" version="26.0.15">
  <diagram name="Halaman-1" id="rirXfaP6ppAq_RIEBTCZ">
    <mxGraphModel dx="3125" dy="1211" grid="1" gridSize="10" guides="1" tooltips="1" connect="1" arrows="1" fold="1" page="1" pageScale="1" pageWidth="1169" pageHeight="827" math="0" shadow="0">
      <root>
        <mxCell id="0" />
        <mxCell id="1" parent="0" />
        <mxCell id="CGnV7A-yTZ-G1ExAjR2t-7" style="edgeStyle=orthogonalEdgeStyle;rounded=0;orthogonalLoop=1;jettySize=auto;html=1;entryX=0;entryY=0.5;entryDx=0;entryDy=0;" edge="1" parent="1" source="CGnV7A-yTZ-G1ExAjR2t-1" target="CGnV7A-yTZ-G1ExAjR2t-3">
          <mxGeometry relative="1" as="geometry" />
        </mxCell>
        <mxCell id="CGnV7A-yTZ-G1ExAjR2t-8" style="edgeStyle=orthogonalEdgeStyle;rounded=0;orthogonalLoop=1;jettySize=auto;html=1;entryX=0;entryY=0.5;entryDx=0;entryDy=0;" edge="1" parent="1" source="CGnV7A-yTZ-G1ExAjR2t-1" target="CGnV7A-yTZ-G1ExAjR2t-2">
          <mxGeometry relative="1" as="geometry" />
        </mxCell>
        <mxCell id="CGnV7A-yTZ-G1ExAjR2t-11" style="edgeStyle=orthogonalEdgeStyle;rounded=0;orthogonalLoop=1;jettySize=auto;html=1;entryX=1;entryY=0.5;entryDx=0;entryDy=0;" edge="1" parent="1" source="CGnV7A-yTZ-G1ExAjR2t-1" target="CGnV7A-yTZ-G1ExAjR2t-4">
          <mxGeometry relative="1" as="geometry" />
        </mxCell>
        <mxCell id="CGnV7A-yTZ-G1ExAjR2t-12" style="edgeStyle=orthogonalEdgeStyle;rounded=0;orthogonalLoop=1;jettySize=auto;html=1;entryX=1;entryY=0.5;entryDx=0;entryDy=0;" edge="1" parent="1" source="CGnV7A-yTZ-G1ExAjR2t-1" target="CGnV7A-yTZ-G1ExAjR2t-5">
          <mxGeometry relative="1" as="geometry" />
        </mxCell>
        <mxCell id="CGnV7A-yTZ-G1ExAjR2t-1" value="Web Programmer" style="rounded=0;whiteSpace=wrap;html=1;fillColor=#dae8fc;strokeColor=#6c8ebf;" vertex="1" parent="1">
          <mxGeometry x="440" y="330" width="120" height="60" as="geometry" />
        </mxCell>
        <mxCell id="CGnV7A-yTZ-G1ExAjR2t-21" style="edgeStyle=orthogonalEdgeStyle;rounded=0;orthogonalLoop=1;jettySize=auto;html=1;entryX=0;entryY=0.5;entryDx=0;entryDy=0;" edge="1" parent="1" source="CGnV7A-yTZ-G1ExAjR2t-2" target="CGnV7A-yTZ-G1ExAjR2t-19">
          <mxGeometry relative="1" as="geometry" />
        </mxCell>
        <mxCell id="CGnV7A-yTZ-G1ExAjR2t-23" style="edgeStyle=orthogonalEdgeStyle;rounded=0;orthogonalLoop=1;jettySize=auto;html=1;" edge="1" parent="1" source="CGnV7A-yTZ-G1ExAjR2t-2" target="CGnV7A-yTZ-G1ExAjR2t-22">
          <mxGeometry relative="1" as="geometry" />
        </mxCell>
        <mxCell id="CGnV7A-yTZ-G1ExAjR2t-26" style="edgeStyle=orthogonalEdgeStyle;rounded=0;orthogonalLoop=1;jettySize=auto;html=1;entryX=0;entryY=0.5;entryDx=0;entryDy=0;" edge="1" parent="1" source="CGnV7A-yTZ-G1ExAjR2t-2" target="CGnV7A-yTZ-G1ExAjR2t-24">
          <mxGeometry relative="1" as="geometry" />
        </mxCell>
        <mxCell id="CGnV7A-yTZ-G1ExAjR2t-27" style="edgeStyle=orthogonalEdgeStyle;rounded=0;orthogonalLoop=1;jettySize=auto;html=1;entryX=0;entryY=0.5;entryDx=0;entryDy=0;" edge="1" parent="1" source="CGnV7A-yTZ-G1ExAjR2t-2" target="CGnV7A-yTZ-G1ExAjR2t-25">
          <mxGeometry relative="1" as="geometry" />
        </mxCell>
        <mxCell id="CGnV7A-yTZ-G1ExAjR2t-2" value="Coding" style="rounded=0;whiteSpace=wrap;html=1;fillColor=#d5e8d4;strokeColor=#82b366;" vertex="1" parent="1">
          <mxGeometry x="700" y="500" width="120" height="60" as="geometry" />
        </mxCell>
        <mxCell id="CGnV7A-yTZ-G1ExAjR2t-16" style="edgeStyle=orthogonalEdgeStyle;rounded=0;orthogonalLoop=1;jettySize=auto;html=1;entryX=0;entryY=0.5;entryDx=0;entryDy=0;" edge="1" parent="1" source="CGnV7A-yTZ-G1ExAjR2t-3" target="CGnV7A-yTZ-G1ExAjR2t-13">
          <mxGeometry relative="1" as="geometry" />
        </mxCell>
        <mxCell id="CGnV7A-yTZ-G1ExAjR2t-17" style="edgeStyle=orthogonalEdgeStyle;rounded=0;orthogonalLoop=1;jettySize=auto;html=1;" edge="1" parent="1" source="CGnV7A-yTZ-G1ExAjR2t-3" target="CGnV7A-yTZ-G1ExAjR2t-14">
          <mxGeometry relative="1" as="geometry" />
        </mxCell>
        <mxCell id="CGnV7A-yTZ-G1ExAjR2t-18" style="edgeStyle=orthogonalEdgeStyle;rounded=0;orthogonalLoop=1;jettySize=auto;html=1;entryX=0;entryY=0.5;entryDx=0;entryDy=0;" edge="1" parent="1" source="CGnV7A-yTZ-G1ExAjR2t-3" target="CGnV7A-yTZ-G1ExAjR2t-15">
          <mxGeometry relative="1" as="geometry" />
        </mxCell>
        <mxCell id="CGnV7A-yTZ-G1ExAjR2t-3" value="Database" style="rounded=0;whiteSpace=wrap;html=1;fillColor=#d5e8d4;strokeColor=#82b366;" vertex="1" parent="1">
          <mxGeometry x="700" y="190" width="120" height="60" as="geometry" />
        </mxCell>
        <mxCell id="CGnV7A-yTZ-G1ExAjR2t-39" style="edgeStyle=orthogonalEdgeStyle;rounded=0;orthogonalLoop=1;jettySize=auto;html=1;entryX=1;entryY=0.5;entryDx=0;entryDy=0;" edge="1" parent="1" source="CGnV7A-yTZ-G1ExAjR2t-4" target="CGnV7A-yTZ-G1ExAjR2t-30">
          <mxGeometry relative="1" as="geometry" />
        </mxCell>
        <mxCell id="CGnV7A-yTZ-G1ExAjR2t-40" style="edgeStyle=orthogonalEdgeStyle;rounded=0;orthogonalLoop=1;jettySize=auto;html=1;entryX=1;entryY=0.5;entryDx=0;entryDy=0;" edge="1" parent="1" source="CGnV7A-yTZ-G1ExAjR2t-4" target="CGnV7A-yTZ-G1ExAjR2t-29">
          <mxGeometry relative="1" as="geometry" />
        </mxCell>
        <mxCell id="CGnV7A-yTZ-G1ExAjR2t-41" style="edgeStyle=orthogonalEdgeStyle;rounded=0;orthogonalLoop=1;jettySize=auto;html=1;entryX=1;entryY=0.5;entryDx=0;entryDy=0;" edge="1" parent="1" source="CGnV7A-yTZ-G1ExAjR2t-4" target="CGnV7A-yTZ-G1ExAjR2t-28">
          <mxGeometry relative="1" as="geometry" />
        </mxCell>
        <mxCell id="CGnV7A-yTZ-G1ExAjR2t-4" value="Analisis &amp;amp; Desain" style="rounded=0;whiteSpace=wrap;html=1;fillColor=#d5e8d4;strokeColor=#82b366;" vertex="1" parent="1">
          <mxGeometry x="230" y="230" width="120" height="60" as="geometry" />
        </mxCell>
        <mxCell id="CGnV7A-yTZ-G1ExAjR2t-35" style="edgeStyle=orthogonalEdgeStyle;rounded=0;orthogonalLoop=1;jettySize=auto;html=1;entryX=1;entryY=0.5;entryDx=0;entryDy=0;" edge="1" parent="1" source="CGnV7A-yTZ-G1ExAjR2t-5" target="CGnV7A-yTZ-G1ExAjR2t-31">
          <mxGeometry relative="1" as="geometry" />
        </mxCell>
        <mxCell id="CGnV7A-yTZ-G1ExAjR2t-36" style="edgeStyle=orthogonalEdgeStyle;rounded=0;orthogonalLoop=1;jettySize=auto;html=1;entryX=1;entryY=0.5;entryDx=0;entryDy=0;" edge="1" parent="1" source="CGnV7A-yTZ-G1ExAjR2t-5" target="CGnV7A-yTZ-G1ExAjR2t-32">
          <mxGeometry relative="1" as="geometry" />
        </mxCell>
        <mxCell id="CGnV7A-yTZ-G1ExAjR2t-37" style="edgeStyle=orthogonalEdgeStyle;rounded=0;orthogonalLoop=1;jettySize=auto;html=1;entryX=1;entryY=0.5;entryDx=0;entryDy=0;" edge="1" parent="1" source="CGnV7A-yTZ-G1ExAjR2t-5" target="CGnV7A-yTZ-G1ExAjR2t-33">
          <mxGeometry relative="1" as="geometry" />
        </mxCell>
        <mxCell id="CGnV7A-yTZ-G1ExAjR2t-38" style="edgeStyle=orthogonalEdgeStyle;rounded=0;orthogonalLoop=1;jettySize=auto;html=1;entryX=1;entryY=0.5;entryDx=0;entryDy=0;" edge="1" parent="1" source="CGnV7A-yTZ-G1ExAjR2t-5" target="CGnV7A-yTZ-G1ExAjR2t-34">
          <mxGeometry relative="1" as="geometry" />
        </mxCell>
        <mxCell id="CGnV7A-yTZ-G1ExAjR2t-5" value="Testing" style="rounded=0;whiteSpace=wrap;html=1;fillColor=#d5e8d4;strokeColor=#82b366;" vertex="1" parent="1">
          <mxGeometry x="230" y="430" width="120" height="60" as="geometry" />
        </mxCell>
        <mxCell id="CGnV7A-yTZ-G1ExAjR2t-13" value="Menulis Query" style="rounded=0;whiteSpace=wrap;html=1;fillColor=#fff2cc;strokeColor=#d6b656;" vertex="1" parent="1">
          <mxGeometry x="940" y="100" width="120" height="60" as="geometry" />
        </mxCell>
        <mxCell id="CGnV7A-yTZ-G1ExAjR2t-14" value="Merancang dan Membuat Database" style="rounded=0;whiteSpace=wrap;html=1;fillColor=#fff2cc;strokeColor=#d6b656;" vertex="1" parent="1">
          <mxGeometry x="940" y="190" width="120" height="60" as="geometry" />
        </mxCell>
        <mxCell id="CGnV7A-yTZ-G1ExAjR2t-15" value="Migrasi dan Sinkronisasi Data" style="rounded=0;whiteSpace=wrap;html=1;fillColor=#fff2cc;strokeColor=#d6b656;" vertex="1" parent="1">
          <mxGeometry x="940" y="270" width="120" height="60" as="geometry" />
        </mxCell>
        <mxCell id="CGnV7A-yTZ-G1ExAjR2t-19" value="Membuat Tampilan Web" style="rounded=0;whiteSpace=wrap;html=1;fillColor=#fff2cc;strokeColor=#d6b656;" vertex="1" parent="1">
          <mxGeometry x="940" y="414" width="120" height="60" as="geometry" />
        </mxCell>
        <mxCell id="CGnV7A-yTZ-G1ExAjR2t-20" style="edgeStyle=orthogonalEdgeStyle;rounded=0;orthogonalLoop=1;jettySize=auto;html=1;exitX=0.5;exitY=1;exitDx=0;exitDy=0;entryX=0.497;entryY=0.833;entryDx=0;entryDy=0;entryPerimeter=0;" edge="1" parent="1" source="CGnV7A-yTZ-G1ExAjR2t-2" target="CGnV7A-yTZ-G1ExAjR2t-2">
          <mxGeometry relative="1" as="geometry" />
        </mxCell>
        <mxCell id="CGnV7A-yTZ-G1ExAjR2t-22" value="Mengembangkan Backend atau API" style="rounded=0;whiteSpace=wrap;html=1;fillColor=#fff2cc;strokeColor=#d6b656;" vertex="1" parent="1">
          <mxGeometry x="940" y="500" width="120" height="60" as="geometry" />
        </mxCell>
        <mxCell id="CGnV7A-yTZ-G1ExAjR2t-24" value="Membuat Fitur dan Logika Aplikasi" style="rounded=0;whiteSpace=wrap;html=1;fillColor=#fff2cc;strokeColor=#d6b656;" vertex="1" parent="1">
          <mxGeometry x="940" y="590" width="120" height="60" as="geometry" />
        </mxCell>
        <mxCell id="CGnV7A-yTZ-G1ExAjR2t-25" value="Membuat Fitur dan Logika Aplikasi" style="rounded=0;whiteSpace=wrap;html=1;fillColor=#fff2cc;strokeColor=#d6b656;" vertex="1" parent="1">
          <mxGeometry x="940" y="680" width="120" height="60" as="geometry" />
        </mxCell>
        <mxCell id="CGnV7A-yTZ-G1ExAjR2t-28" value="Analisis Kebutuhan" style="rounded=0;whiteSpace=wrap;html=1;fillColor=#fff2cc;strokeColor=#d6b656;" vertex="1" parent="1">
          <mxGeometry x="-10" y="80" width="120" height="60" as="geometry" />
        </mxCell>
        <mxCell id="CGnV7A-yTZ-G1ExAjR2t-29" value="Perancangan Arsitektur" style="rounded=0;whiteSpace=wrap;html=1;fillColor=#fff2cc;strokeColor=#d6b656;" vertex="1" parent="1">
          <mxGeometry x="-10" y="170" width="120" height="60" as="geometry" />
        </mxCell>
        <mxCell id="CGnV7A-yTZ-G1ExAjR2t-30" value="Perancangan API dan Dokumentasi" style="rounded=0;whiteSpace=wrap;html=1;fillColor=#fff2cc;strokeColor=#d6b656;" vertex="1" parent="1">
          <mxGeometry x="-10" y="260" width="120" height="60" as="geometry" />
        </mxCell>
        <mxCell id="CGnV7A-yTZ-G1ExAjR2t-31" value="Menulis Unit Testing" style="rounded=0;whiteSpace=wrap;html=1;fillColor=#fff2cc;strokeColor=#d6b656;" vertex="1" parent="1">
          <mxGeometry x="-10" y="354" width="120" height="60" as="geometry" />
        </mxCell>
        <mxCell id="CGnV7A-yTZ-G1ExAjR2t-32" value="Menulis Integration Testing" style="rounded=0;whiteSpace=wrap;html=1;fillColor=#fff2cc;strokeColor=#d6b656;" vertex="1" parent="1">
          <mxGeometry x="-10" y="440" width="120" height="60" as="geometry" />
        </mxCell>
        <mxCell id="CGnV7A-yTZ-G1ExAjR2t-33" value="Menulis Functional Testing" style="rounded=0;whiteSpace=wrap;html=1;fillColor=#fff2cc;strokeColor=#d6b656;" vertex="1" parent="1">
          <mxGeometry x="-10" y="530" width="120" height="60" as="geometry" />
        </mxCell>
        <mxCell id="CGnV7A-yTZ-G1ExAjR2t-34" value="Melakukan&amp;nbsp;&amp;nbsp;User Acceptance Testing" style="rounded=0;whiteSpace=wrap;html=1;fillColor=#fff2cc;strokeColor=#d6b656;" vertex="1" parent="1">
          <mxGeometry x="-10" y="630" width="120" height="60" as="geometry" />
        </mxCell>
      </root>
    </mxGraphModel>
  </diagram>
</mxfile>
